# xmcd
#
# Track frame offsets:
#	150
#	2439
#	13113
#	27782
#	39666
#	63218
#	79920
#	91894
#	104812
#	123049
#	133991
#	150497
#	151091
#	169824
#
# Disc length: 2489 seconds
#
# Revision: 1
# Processed by: cddbd v1.4PL0 Copyright (c) Steve Scherf et al.
# Submitted via: audiograbber 1.82.02
#
DISCID=a209b70e
DTITLE=Sluta Leta - Semi Peterson
DYEAR=2003
DGENRE=
TTITLE0=Sköldpadda
TTITLE1=Yea Song
TTITLE2=Flash
TTITLE3=Trög Men Fästa
TTITLE4=Whispers Special (Med Angelika Koehlermann)
TTITLE5=Lecco
TTITLE6=Forests of the Moon
TTITLE7=KlockAn Tjugosju (Quehenberger Rocks)
TTITLE8=Super Swede
TTITLE9=Wirbla
TTITLE10=Vissna Bort
TTITLE11=Quasi Mezzo
TTITLE12=Smakfull Basmusik
TTITLE13=Förjaga
EXTD=
EXTT0=
EXTT1=
EXTT2=
EXTT3=
EXTT4=
EXTT5=
EXTT6=
EXTT7=
EXTT8=
EXTT9=
EXTT10=
EXTT11=
EXTT12=
EXTT13=
PLAYORDER=
